<?xml version="1.0" encoding="UTF-8" standalone="no"?>
<!-- Created with Inkscape (http://www.inkscape.org/) -->

<svg
   width="210mm"
   height="297mm"
   viewBox="0 0 210 297"
   version="1.1"
   id="svg5"
   inkscape:export-filename="/Users/christopher/bitmap.png"
   inkscape:export-xdpi="96.269997"
   inkscape:export-ydpi="96.269997"
   inkscape:version="1.1 (c4e8f9e, 2021-05-24)"
   sodipodi:docname="drawing.svg"
   xmlns:inkscape="http://www.inkscape.org/namespaces/inkscape"
   xmlns:sodipodi="http://sodipodi.sourceforge.net/DTD/sodipodi-0.dtd"
   xmlns="http://www.w3.org/2000/svg"
   xmlns:svg="http://www.w3.org/2000/svg">
  <sodipodi:namedview
     id="namedview7"
     pagecolor="#ffffff"
     bordercolor="#666666"
     borderopacity="1.0"
     inkscape:pageshadow="2"
     inkscape:pageopacity="0.0"
     inkscape:pagecheckerboard="0"
     inkscape:document-units="mm"
     showgrid="false"
     inkscape:zoom="1.271591"
     inkscape:cx="257.55137"
     inkscape:cy="388.8829"
     inkscape:window-width="1637"
     inkscape:window-height="963"
     inkscape:window-x="0"
     inkscape:window-y="25"
     inkscape:window-maximized="0"
     inkscape:current-layer="layer1" />
  <defs
     id="defs2" />
  <g
     inkscape:label="Layer 1"
     inkscape:groupmode="layer"
     id="layer1">
    <rect
       style="fill:#000000;fill-opacity:1;stroke:#000000;stroke-width:1.022;stroke-linecap:round;stroke-linejoin:round;stroke-miterlimit:4;stroke-dasharray:none;stroke-opacity:1"
       id="rect31"
       width="105.83334"
       height="105.83334"
       x="62.938145"
       y="60.216496"
       ry="0" />
    <path
       style="fill:#ffffff;stroke:#000000;stroke-width:0.264583px;stroke-linecap:butt;stroke-linejoin:miter;stroke-opacity:1"
       d="m 70.952782,151.06076 c 1.745954,-1.48019 3.931058,-2.39624 5.617962,-3.95338 3.726733,-3.44006 3.333998,-8.51647 1.872654,-12.9005 -0.58122,-1.74366 -0.716814,-1.39788 -1.664581,-3.1211 -1.881166,-3.4203 -2.080728,-4.63451 -2.080728,-8.53097 0,-0.55487 -0.07847,-1.1153 0,-1.66459 0.540298,-3.78208 4.897043,-5.55315 7.074472,-8.11483 0.585676,-0.68903 0.979609,-1.52046 1.45651,-2.2888 0.771583,-1.24311 1.670073,-2.41947 2.288799,-3.74531 0.959371,-2.0558 0.757253,-5.6281 0.624218,-7.490615 -0.09018,-1.26244 -0.363482,-2.5068 -0.624218,-3.745309 -0.02021,-0.09598 -0.138716,-0.277429 -0.208074,-0.208071 -0.06936,0.06936 0.208074,0.306157 0.208074,0.208071 0,-1.269307 -0.815017,-1.585539 0.624218,-2.704944 4.942163,-3.843906 9.949273,-4.864465 16.021592,-5.201816 1.17727,-0.0654 2.37001,-0.166746 3.53724,0 0.21224,0.03032 0.30255,-0.0191 1.45651,2.288799 2.15752,4.315052 3.20343,7.731598 0.83229,12.276285 -2.89226,5.54349 -8.155159,9.57833 -9.363273,16.0216 -0.408154,2.17682 0.109477,4.71972 0.416145,6.8664 0.335282,2.34697 0.832292,6.00781 0.832292,8.53098 0,0.83517 0.0475,1.70176 -0.208074,2.49687 -0.379666,1.18119 -1.056312,2.24779 -1.664581,3.32916 -2.419858,4.30197 -5.727581,7.53351 -10.403633,9.36327 -0.878502,0.34376 -1.818376,0.50991 -2.704944,0.83229 -0.641967,0.23344 -1.219769,0.63141 -1.872655,0.83229 -0.265163,0.0816 -0.556556,-0.0306 -0.832292,0 -1.376312,0.15293 -2.792127,0.396 -4.161451,0.62422 -2.860088,0.47668 -4.355481,1.16528 -7.074472,0 z"
       id="path1303" />
    <path
       style="fill:#ffffff;stroke:#000000;stroke-width:0.264583px;stroke-linecap:butt;stroke-linejoin:miter;stroke-opacity:1"
       d="m 115.68841,77.81918 c 1.80329,1.040363 4.25507,1.388859 5.40989,3.121091 4.15897,6.23846 -1.3739,14.738517 -4.36953,19.766899 -0.5908,0.9917 -1.23234,1.95255 -1.87265,2.91302 -0.19237,0.28855 -0.62422,0.48551 -0.62422,0.83229 0,0.0446 2.23607,-0.046 2.49687,0 2.81001,0.49589 5.47683,1.11882 8.32291,0.20808 2.51243,-0.80398 3.15431,-1.67613 4.5776,-3.95339 0.78925,-1.262808 1.6292,-2.534309 2.08072,-3.953377 1.63754,-5.14653 0.55909,-14.62228 -3.32916,-18.726539 -0.36646,-0.386816 -3.50168,-0.601017 -3.74531,-0.624218 -3.08889,-0.294183 -5.88999,-0.139698 -8.94712,0.416144 z"
       id="path1305" />
    <path
       style="fill:#ffffff;stroke:#000000;stroke-width:0.264583px;stroke-linecap:butt;stroke-linejoin:miter;stroke-opacity:1"
       d="m 110.27852,126.30011 c 5.3906,-6.18097 15.32526,-3.49714 21.22341,-8.3229 0.91098,-0.74535 1.72179,-1.61106 2.49687,-2.49688 2.21481,-2.53121 4.21716,-6.03573 5.40989,-9.15519 0.21636,-0.56586 1.53361,-6.386185 1.66458,-6.866401 0.5139,-1.884307 1.11595,-3.743476 1.66458,-5.617964 0.33292,-1.137475 1.01988,-4.135847 1.87266,-5.201817 0.1682,-0.210248 2.98315,-1.613762 3.12109,-1.664581 4.52152,-1.665824 5.58959,0.614291 8.32291,4.577599 0.70987,1.029314 1.48793,2.020183 2.08072,3.121091 2.29459,4.261384 1.73916,9.738893 0.41615,14.148943 -0.19629,0.65428 -0.59244,1.23305 -0.83229,1.87265 -0.14981,0.39949 -1.46449,4.32138 -1.66458,5.20182 -0.72002,3.16805 -0.30495,2.97452 -0.41615,6.8664 -0.0732,2.56199 -0.83592,8.57912 -1.04036,9.98749 -0.10265,0.70711 -0.67244,7.9389 -2.49688,9.15519 -0.46194,0.30797 -1.56489,-0.23662 -1.87265,-0.41614 -2.35456,-1.3735 -4.45203,-3.36401 -6.24218,-5.40989 -0.30655,-0.35034 -2.37988,-3.36008 -3.32916,-3.95338 -2.8006,-1.75038 -8.29794,-1.39825 -11.444,-1.24844 -1.73751,0.0827 -3.47189,0.23405 -5.20182,0.41615 -2.22442,0.23415 -4.43591,0.57974 -6.65832,0.83229 -0.82984,0.0943 -1.67517,0.35747 -2.49687,0.20807 -1.39414,-0.25348 -3.23304,-1.65241 -3.95338,-2.91302 -0.38167,-0.6679 -0.107,-0.85599 -0.20808,-1.66458 -0.0626,-0.50103 -0.29368,-0.96665 -0.41614,-1.45651 z"
       id="path1307" />
    <path
       style="fill:#ffffff;stroke:#000000;stroke-width:0.264583px;stroke-linecap:butt;stroke-linejoin:miter;stroke-opacity:1"
       d="m 90.927758,158.55138 c 3.675951,-2.21944 7.278332,-4.56557 11.027852,-6.65833 5.96589,-3.3298 10.95659,-5.52162 17.4781,-2.91302 14.98754,5.99502 -4.90948,-1.34378 10.81978,4.16146 3.41404,1.19491 3.58553,1.69664 7.90677,2.49687 2.80939,0.52026 5.67705,0.69639 8.53097,0.83229 2.33765,0.11132 1.62052,-0.19313 4.16146,0.20807 1.35383,0.21377 2.29266,0.56001 3.12109,1.66458 0.1861,0.24815 0.31806,0.53804 0.41614,0.8323 0.0439,0.13159 -0.13871,0.41614 0,0.41614 0.13872,0 0.0981,-0.51423 0,-0.41614 -2.52236,2.52236 1.07979,-0.34496 -0.83229,1.24843 -1.13446,0.94539 -2.51931,2.06665 -3.95338,2.49687 -4.32344,1.29704 -9.31986,1.08478 -13.73279,0.41615 -9.85216,-1.49275 -19.7548,-3.13523 -29.7544,-2.91302 -3.45596,0.0768 -6.772684,0.5063 -10.195557,0.83229 -0.399917,0.0381 -3.814685,0.69357 -4.369527,0.41615 -1.194549,-0.59728 -0.883904,-2.08235 -0.624218,-3.12109 z"
       id="path1309" />
  </g>
</svg>
